<?xml version="1.0" standalone="no"?><!DOCTYPE svg PUBLIC "-//W3C//DTD SVG 1.1//EN" "http://www.w3.org/Graphics/SVG/1.1/DTD/svg11.dtd"><svg t="1770279004318" class="icon" viewBox="0 0 1024 1024" version="1.1" xmlns="http://www.w3.org/2000/svg" p-id="15695" xmlns:xlink="http://www.w3.org/1999/xlink" width="200" height="200"><path d="M511.0784 507.9552a216.4736 216.4736 0 1 0-216.5248-216.4736 216.7296 216.7296 0 0 0 216.5248 216.4736z m0-371.5072a155.0336 155.0336 0 1 1-155.0848 155.0336 155.2384 155.2384 0 0 1 155.0848-155.0336zM769.1264 550.8608H252.9792a182.3232 182.3232 0 0 0-182.1184 182.1184v140.6464a67.072 67.072 0 0 0 67.0208 67.0208H884.224a67.072 67.072 0 0 0 67.0208-67.0208v-140.6464a182.3232 182.3232 0 0 0-182.1184-182.1184z m120.6784 322.56a5.5808 5.5808 0 0 1-5.5808 5.5808H137.8816a5.5808 5.5808 0 0 1-5.5808-5.5808v-140.4416a120.8832 120.8832 0 0 1 120.6784-120.6784h516.1472a120.8832 120.8832 0 0 1 120.6784 120.6784z" fill="#e6e6e6" p-id="15696"></path><path d="M670.3104 750.1312H351.7952a30.72 30.72 0 1 0 0 61.44h318.5152a30.72 30.72 0 0 0 0-61.44z" fill="#e6e6e6" p-id="15697"></path></svg>